<svg width="24" height="24" viewBox="0 0 24 24" fill="none" xmlns="http://www.w3.org/2000/svg">
<path d="M23.1542 14.4C23.2657 14.3998 23.3762 14.4218 23.4792 14.4645C23.5823 14.5073 23.6758 14.57 23.7545 14.6491C23.8331 14.7282 23.8953 14.8221 23.9375 14.9254C23.9797 15.0287 24.001 15.1393 24.0002 15.2508V19.0956C24.001 19.2066 23.9799 19.3168 23.9381 19.4196C23.8963 19.5225 23.8346 19.6161 23.7566 19.6952C23.6786 19.7742 23.5857 19.837 23.4834 19.8801C23.3811 19.9233 23.2712 19.9458 23.1602 19.9464C23.0492 19.9458 22.9393 19.9233 22.837 19.8801C22.7347 19.837 22.6418 19.7742 22.5638 19.6952C22.4858 19.6161 22.4241 19.5225 22.3823 19.4196C22.3405 19.3168 22.3194 19.2066 22.3202 19.0956V17.7456C20.135 21.4128 16.079 24 11.7086 24C6.4166 24 1.9814 20.7348 0.0577957 15.702C-0.0236237 15.4924 -0.0188546 15.259 0.0710631 15.0529C0.160981 14.8468 0.328753 14.6845 0.537796 14.6016C0.969796 14.4324 1.457 14.6496 1.625 15.0876C3.305 19.482 7.1306 22.2996 11.7086 22.2996C15.7538 22.2996 19.5326 19.6812 21.293 16.1148L19.5278 16.1268C19.4168 16.127 19.3068 16.1052 19.2041 16.0628C19.1015 16.0205 19.0082 15.9583 18.9297 15.8798C18.8511 15.8013 18.7887 15.7081 18.7462 15.6056C18.7037 15.503 18.6818 15.393 18.6818 15.282C18.6789 15.0578 18.7651 14.8417 18.9215 14.681C19.0779 14.5204 19.2916 14.4284 19.5158 14.4252L23.1542 14.4ZM12.2942 0C17.5838 0 22.0202 3.2652 23.9438 8.298C24.0252 8.50764 24.0204 8.74097 23.9305 8.9471C23.8406 9.15324 23.6728 9.31546 23.4638 9.3984C23.3606 9.43866 23.2504 9.458 23.1396 9.45531C23.0288 9.45262 22.9197 9.42796 22.8186 9.38274C22.7174 9.33752 22.6263 9.27266 22.5504 9.19192C22.4745 9.11118 22.4154 9.01616 22.3766 8.9124C20.6966 4.518 16.871 1.7004 12.293 1.7004C8.2478 1.7004 4.469 4.3188 2.7086 7.8852L4.4738 7.8732C4.58484 7.87304 4.69482 7.89478 4.79746 7.93716C4.90009 7.97955 4.99336 8.04175 5.07194 8.12021C5.15051 8.19867 5.21284 8.29186 5.25537 8.39443C5.29791 8.49701 5.3198 8.60696 5.3198 8.718C5.32268 8.94217 5.23647 9.15833 5.08009 9.31898C4.92371 9.47963 4.70997 9.57164 4.4858 9.5748L0.846196 9.6C0.734647 9.60016 0.624172 9.57823 0.521144 9.53547C0.418116 9.49271 0.324576 9.42997 0.245923 9.35087C0.16727 9.27177 0.105061 9.17788 0.0628851 9.07461C0.0207097 8.97134 -0.000596664 8.86075 0.0001957 8.7492V4.9044C0.0001957 4.434 0.375796 4.0536 0.840196 4.0536C1.3046 4.0536 1.6802 4.434 1.6802 4.9044V6.2544C3.8654 2.5872 7.9214 0 12.2918 0" fill="black"/>
</svg>
